<?xml version="1.0" encoding="UTF-8"?>
<svg id="Layer_2" data-name="Layer 2" xmlns="http://www.w3.org/2000/svg" viewBox="0 0 100 100">
  <defs>
    <style>
      .cls-1 {
        fill: #fff;
      }

      .cls-2 {
        fill: #00857d;
      }
    </style>
  </defs>
  <rect class="cls-1" x="0" width="100" height="100"/>
  <path class="cls-2" d="m46.51,7.12c-.62,0-1.23.01-1.85.03-3.29.12-6.6.62-9.83,1.48C11.23,14.97-2.83,39.35,3.49,62.95c6.32,23.6,30.7,37.67,54.31,31.34,23.6-6.32,37.67-30.7,31.34-54.31-.48-2.28-2.72-3.74-5.01-3.26s-3.74,2.72-3.26,5.01c.03.15.07.29.12.43,5.14,19.19-6.18,38.84-25.37,43.98-19.19,5.14-38.84-6.18-43.98-25.37-5.14-19.19,6.18-38.84,25.37-43.98,10.48-2.81,21.68-.72,30.45,5.67,1.88,1.38,4.53.97,5.91-.92,1.38-1.88.97-4.53-.92-5.91,0,0,0,0,0,0-7.61-5.55-16.7-8.47-25.93-8.51h0Zm45.99,3.13c-1.1.06-2.13.55-2.87,1.35-11.13,11.65-33.38,35.71-45.73,48.73l-14.85-13.1c-1.75-1.55-4.42-1.39-5.97.36s-1.39,4.42.36,5.97h0l17.95,15.84c1.71,1.51,4.31,1.4,5.87-.26,11.81-12.35,36.81-39.54,48.47-51.73,1.62-1.67,1.58-4.35-.09-5.97-.84-.81-1.98-1.24-3.14-1.19Z"/>
</svg>