<svg width="22" height="20" viewBox="0 0 22 20" fill="none" xmlns="http://www.w3.org/2000/svg">
<path id="Vector" d="M21.5671 8.39119L11.8159 0.297974C11.3357 -0.10126 10.6235 -0.0973843 10.1432 0.297974L0.436767 8.39507C-0.446378 9.13152 0.0989747 10.5153 1.27515 10.5153C1.97515 10.5153 2.54492 11.0579 2.54492 11.7246V18.7907C2.54492 19.4574 3.11469 20 3.8147 20H8.26705V13.8061C8.26705 13.4301 8.58857 13.1239 8.98334 13.1239H13.0246C13.4194 13.1239 13.7409 13.4301 13.7409 13.8061V20H17.9654C18.6654 20 19.2351 19.4574 19.2351 18.7907V11.7246C19.2351 11.0579 19.8049 10.5153 20.5049 10.5153H20.7288C21.9009 10.5153 22.4462 9.12764 21.5631 8.39119" fill="white"/>
</svg>
