<?xml version="1.0" encoding="UTF-8"?>
<svg id="Layer_2" data-name="Layer 2" xmlns="http://www.w3.org/2000/svg" viewBox="0 0 100 100">
  <path d="m76.63,70.07l-10.31-10.31c-.75-.74-1.81-.96-2.75-.69l-6.28-6.28c2.24-3.13,3.56-6.96,3.56-11.09,0-10.56-8.59-19.14-19.15-19.14s-19.14,8.59-19.14,19.14,8.59,19.14,19.14,19.14c4.13,0,7.96-1.32,11.09-3.56l6.28,6.29c-.07.25-.12.51-.12.78,0,.75.29,1.45.82,1.97l10.3,10.3c.53.53,1.23.82,1.97.82s1.45-.29,1.97-.82l2.61-2.61c1.09-1.08,1.09-2.85,0-3.94Zm-52.73-28.37c0-9.82,7.98-17.8,17.8-17.8s17.81,7.99,17.81,17.8-7.99,17.8-17.81,17.8-17.8-7.99-17.8-17.8Zm29.97,14.77c.95-.78,1.82-1.66,2.6-2.6l5.91,5.91-2.6,2.6h0l-5.91-5.91Zm21.82,16.6h0s-2.61,2.61-2.61,2.61c-.27.27-.64.43-1.02.43s-.75-.15-1.03-.43l-10.3-10.31c-.27-.27-.43-.64-.43-1.02s.15-.75.43-1.03l2.61-2.61c.28-.28.65-.42,1.02-.42s.74.14,1.03.42l10.3,10.3c.57.57.57,1.49,0,2.05ZM41.7,27.16c-8.02,0-14.54,6.52-14.54,14.54s6.52,14.54,14.54,14.54,14.55-6.52,14.55-14.54c0-8.02-6.53-14.54-14.55-14.54Zm0,27.75c-7.28,0-13.2-5.92-13.2-13.2s5.92-13.2,13.2-13.2,13.21,5.92,13.21,13.2c0,7.28-5.93,13.2-13.21,13.2Zm-10.04-14.22c-.03.33-.05.68-.05,1.01,0,.37-.3.67-.67.67s-.67-.3-.67-.67.02-.77.06-1.15c.04-.37.37-.64.73-.6.37.04.64.36.6.73Zm10.71-9.74c0,.37-.3.67-.67.67-4.14,0-7.92,2.59-9.41,6.44-.1.27-.36.43-.62.43-.08,0-.16-.01-.24-.05-.34-.13-.52-.52-.38-.87.83-2.14,2.26-3.96,4.15-5.27,1.92-1.33,4.17-2.03,6.51-2.03.37,0,.67.3.67.67Z"/>
</svg>