<?xml version="1.0" encoding="UTF-8"?>
<svg id="Layer_2" data-name="Layer 2" xmlns="http://www.w3.org/2000/svg" viewBox="0 0 100 100">
  <path d="m72.53,36.85h-9.82c-.58,0-1.05-.3-1.3-.82l-1.97-4.19c-.44-.94-1.37-1.53-2.41-1.53h-14.08c-1.04,0-1.97.59-2.41,1.53l-1.97,4.19c-.25.52-.72.82-1.3.82h-9.82c-1.47,0-2.66,1.19-2.66,2.66v27.51c0,1.47,1.19,2.66,2.66,2.66h45.07c1.47,0,2.66-1.19,2.66-2.66v-27.51c0-1.47-1.19-2.66-2.66-2.66Zm-45.07,1.23h9.82c1.04,0,1.97-.59,2.41-1.53l1.97-4.19c.25-.52.72-.82,1.3-.82h14.08c.58,0,1.05.3,1.3.82l1.97,4.19c.44.94,1.37,1.53,2.41,1.53h9.82c.79,0,1.43.64,1.43,1.43v7h-11.92c-2.37-4.21-6.88-7.06-12.04-7.06s-9.67,2.85-12.04,7.06h-11.93v-7c0-.79.64-1.43,1.43-1.43Zm22.53,2.6c6.94,0,12.59,5.65,12.59,12.59s-5.65,12.59-12.59,12.59-12.59-5.65-12.59-12.59,5.65-12.59,12.59-12.59Zm22.53,27.77H27.47c-.79,0-1.43-.64-1.43-1.43v-19.28h11.31c-.74,1.69-1.16,3.56-1.16,5.53,0,7.62,6.2,13.82,13.82,13.82s13.82-6.2,13.82-13.82c0-1.97-.42-3.83-1.16-5.53h11.31v19.28c0,.79-.64,1.43-1.43,1.43Zm-22.53-4.83c5.71,0,10.36-4.65,10.36-10.36s-4.65-10.36-10.36-10.36-10.36,4.65-10.36,10.36c0,5.71,4.65,10.36,10.36,10.36Zm0-19.48c5.03,0,9.13,4.09,9.13,9.13s-4.09,9.13-9.13,9.13-9.13-4.09-9.13-9.13,4.09-9.13,9.13-9.13Zm-6.76,5.46c1.35-2.48,3.94-4.02,6.76-4.02.34,0,.61.28.61.61s-.27.61-.61.61c-2.37,0-4.55,1.3-5.68,3.38-.11.21-.32.32-.54.32-.1,0-.2-.02-.29-.07-.3-.16-.41-.54-.25-.83Zm.35,2.84c-.04.27-.05.55-.05.83,0,.34-.28.61-.61.61s-.61-.28-.61-.61.02-.66.06-.99c.04-.34.35-.57.69-.53.34.04.57.35.53.69Zm21.61-7.53h5.4c.9,0,1.64-.74,1.64-1.64v-1.94c0-.9-.74-1.64-1.64-1.64h-5.4c-.9,0-1.64.74-1.64,1.64v1.94c0,.9.73,1.64,1.64,1.64Zm-.41-3.58c0-.23.18-.41.41-.41h5.4c.23,0,.41.18.41.41v1.94c0,.23-.18.41-.41.41h-5.4c-.23,0-.41-.18-.41-.41v-1.94Z"/>
</svg>