<?xml version="1.0" encoding="UTF-8"?>
<svg id="Layer_2" data-name="Layer 2" xmlns="http://www.w3.org/2000/svg" viewBox="0 0 100 100">
  <path d="m48.01,34.54h-20.94c-.55,0-1,.45-1,1s.45,1,1,1h20.94c.55,0,1-.45,1-1s-.45-1-1-1Z"/>
  <path d="m48.01,38.53h-20.94c-.55,0-1,.45-1,1s.45,1,1,1h20.94c.55,0,1-.45,1-1s-.45-1-1-1Z"/>
  <path d="m48.01,42.52h-20.94c-.55,0-1,.45-1,1s.45,1,1,1h20.94c.55,0,1-.45,1-1s-.45-1-1-1Z"/>
  <path d="m49.01,71.94c0-.55-.45-1-1-1h-20.94c-.55,0-1,.45-1,1s.45,1,1,1h20.94c.55,0,1-.45,1-1Z"/>
  <path d="m27.07,74.93c-.55,0-1,.45-1,1s.45,1,1,1h14.46c.55,0,1-.45,1-1s-.45-1-1-1h-14.46Z"/>
  <path d="m41.53,56.98c.55,0,1-.45,1-1s-.45-1-1-1h-14.46c-.55,0-1,.45-1,1s.45,1,1,1h14.46Z"/>
  <path d="m26.07,64.96c0,1.1.89,1.99,1.99,1.99h3.99c1.1,0,1.99-.89,1.99-1.99v-3.99c0-1.1-.89-1.99-1.99-1.99h-3.99c-1.1,0-1.99.89-1.99,1.99v3.99Zm1.99-3.99h3.99v3.99h-3.99v-3.99Z"/>
  <path d="m47.39,52.37l1.37-1.37h-21.7c-.55,0-1,.45-1,1s.45,1,1,1h19.85c.13-.23.29-.43.47-.62Z"/>
  <path d="m65.85,33.91c-.27-.81-1.03-1.36-1.88-1.37h-9.97c-1.1,0-1.99.89-1.99,1.99v9.97c0,.86.55,1.62,1.37,1.88l1.88-1.88h-1.25v-9.97h9.97v1.25l1.88-1.88Z"/>
  <path d="m56.94,62.81l-.95.32v1.83c0,1.1.89,1.99,1.99,1.99h3.99c1.1,0,1.99-.89,1.99-1.99v-3.99c0-1.1-.89-1.99-1.99-1.99h-.76l-1.99,1.99h2.75v3.99h-3.99v-2.76c-.3.27-.66.48-1.05.62Z"/>
  <path d="m44.48,60.97l.59-1.99h-2.04c-1.1,0-1.99.89-1.99,1.99v3.99c0,1.1.89,1.99,1.99,1.99h3.99c.9,0,1.68-.61,1.92-1.47l-.97.32c-1.06.35-2.22.09-3.02-.69-.05-.05-.1-.11-.14-.16h-1.77v-3.99h1.46Z"/>
  <path d="m71.95,27.82v-5.74c0-2.2-1.79-3.99-3.99-3.99H24.08c-2.2,0-3.99,1.79-3.99,3.99v55.85c0,2.2,1.79,3.99,3.99,3.99h43.88c2.2,0,3.99-1.79,3.99-3.99v-29.68l-1.99,1.99v27.68c0,1.1-.89,1.99-1.99,1.99H24.08c-1.1,0-1.99-.89-1.99-1.99V27.06h47.87v2.75l1.99-1.99Zm-49.87-2.75v-2.99c0-1.1.89-1.99,1.99-1.99h43.88c1.1,0,1.99.89,1.99,1.99v2.99H22.08Z"/>
  <path d="m77.64,26.36c-.39-.39-1.02-.39-1.41,0,0,0,0,0,0,0l-27.43,27.43c-.12.12-.2.26-.25.42l-2.49,8.48c-.16.53.15,1.08.68,1.24.2.06.4.05.6-.01l8.98-2.99c.15-.05.28-.13.39-.24l26.93-26.93c.39-.39.39-1.02,0-1.41,0,0,0,0,0,0l-5.98-5.98Zm-29.13,35.06l1.88-6.4.11-.11,4.39,4.39-6.38,2.13Zm7.98-3.35l-4.57-4.57,21.53-21.53,4.57,4.57-21.53,21.53Zm22.94-22.94l-4.57-4.57,2.08-2.08,4.57,4.57-2.08,2.08Z"/>
</svg>