<?xml version="1.0" encoding="UTF-8" standalone="no"?>
<!-- Created with Inkscape (http://www.inkscape.org/) -->

<svg
   version="1.1"
   id="svg2"
   width="136"
   height="153.33333"
   viewBox="0 0 136 153.33333"
   sodipodi:docname="logo.ai"
   xmlns:inkscape="http://www.inkscape.org/namespaces/inkscape"
   xmlns:sodipodi="http://sodipodi.sourceforge.net/DTD/sodipodi-0.dtd"
   xmlns="http://www.w3.org/2000/svg"
   xmlns:svg="http://www.w3.org/2000/svg">
  <defs
     id="defs6">
    <clipPath
       clipPathUnits="userSpaceOnUse"
       id="clipPath16">
      <path
         d="M 0,115 H 102 V 0 H 0 Z"
         id="path14" />
    </clipPath>
  </defs>
  <sodipodi:namedview
     id="namedview4"
     pagecolor="#ffffff"
     bordercolor="#000000"
     borderopacity="0.25"
     inkscape:showpageshadow="2"
     inkscape:pageopacity="0.0"
     inkscape:pagecheckerboard="0"
     inkscape:deskcolor="#d1d1d1" />
  <g
     id="g8"
     inkscape:groupmode="layer"
     inkscape:label="logo"
     transform="matrix(1.3333333,0,0,-1.3333333,0,153.33333)">
    <g
       id="g10">
      <g
         id="g12"
         clip-path="url(#clipPath16)">
        <g
           id="g18"
           transform="translate(25.7764,29.6182)">
          <path
             d="m 0,0 c -6.069,4.975 -9.276,12.124 -9.276,20.667 v 40.615 c 9.585,5.081 21.192,7.656 34.5,7.656 13.308,0 24.915,-2.575 34.5,-7.656 V 20.667 C 59.724,12.124 56.516,4.975 50.447,0 44.895,-4.551 27.25,-12.293 25.224,-13.175 23.197,-12.293 5.552,-4.551 0,0"
             style="fill:#250d05;fill-opacity:1;fill-rule:nonzero;stroke:none"
             id="path20" />
        </g>
        <g
           id="g22"
           transform="translate(75.0488,20.7036)">
          <path
             d="m 0,0 c -1.665,0 -3.02,-1.364 -3.02,-3.028 0,-1.666 1.355,-3.018 3.02,-3.018 1.675,0 3.026,1.352 3.026,3.018 C 3.026,-1.364 1.675,0 0,0 m 2.495,-3.028 c 0,-1.369 -1.114,-2.485 -2.493,-2.485 -1.372,0 -2.488,1.116 -2.488,2.485 0,1.372 1.116,2.495 2.488,2.495 1.379,0 2.493,-1.123 2.493,-2.495 m -2.597,1.312 c 0.564,0 0.638,-0.277 0.638,-0.517 0,-0.346 -0.148,-0.577 -0.859,-0.577 h -0.082 v 1.094 z m -0.967,0.536 v -3.676 h 0.664 v 1.534 h 0.094 c 0.05,-0.074 0.999,-1.534 0.999,-1.534 h 0.804 c 0,0 -1.009,1.474 -1.107,1.619 0.486,0.115 0.814,0.467 0.814,0.977 0,0.522 -0.322,1.08 -1.224,1.08 z m -49.3,8.884 c -6.333,5.191 -9.68,12.65 -9.68,21.565 V 71.65 c 10.002,5.302 22.113,7.989 36,7.989 13.887,0 25.998,-2.687 36,-7.989 V 29.269 c 0,-8.915 -3.347,-16.374 -9.68,-21.565 -5.793,-4.75 -24.206,-12.829 -26.32,-13.748 -2.114,0.919 -20.526,8.998 -26.32,13.748 m 40.263,36.246 c -0.028,5.062 4.282,8.043 8.402,8.162 3.44,0.106 5.772,-1.187 6.873,-2.033 v -5.447 c -1.305,1.34 -3.421,2.554 -5.61,2.574 -1.774,0.016 -3.623,-0.765 -3.684,-2.993 -0.062,-2.279 1.783,-3.179 4.12,-4.549 5.232,-3.076 6.243,-5.84 6.124,-9.493 -0.12,-4.005 -2.881,-8.379 -9.069,-8.379 -2.476,0 -4.924,0.773 -6.885,1.944 v 5.767 c 1.599,-1.425 3.989,-2.534 5.986,-2.548 2.298,-0.011 3.81,1.305 3.756,3.489 -0.047,1.966 -1.157,3.034 -3.911,4.653 -5.166,3.029 -6.094,5.522 -6.102,8.853 M -25.288,27.374 c 0.449,-0.167 1.185,-0.378 2.034,-0.378 3.605,0 5.325,3.308 5.325,10.155 0,7.016 -1.505,9.918 -5.14,9.918 -0.849,0 -1.71,-0.2 -2.219,-0.451 z m 0,-18.308 h -6.265 v 40.819 c 2.271,1.466 5.026,2.227 8.442,2.227 7.476,0 11.584,-5.671 11.584,-14.802 0,-9.15 -3.989,-15.411 -10.942,-15.411 -1.285,0 -2.192,0.171 -2.819,0.356 z m -28.256,22.725 v 19.688 h 6.26 V 31.513 c 0,-1.777 0.43,-4.407 3.302,-4.407 1.271,0 2.281,0.297 2.962,0.765 v 23.608 h 6.253 V 24.307 c -2.393,-1.625 -5.604,-2.515 -9.437,-2.515 -6.197,0 -9.34,3.362 -9.34,9.999 M 8.643,70.758 c -4.446,0.413 -9.064,0.685 -13.769,0.685 -17.447,0 -36.152,-3.75 -51.615,-17.933 V 29.268 c 0,-7.896 2.92,-14.49 8.468,-19.01 4.898,-3.992 19.973,-10.813 24.224,-12.689 4.196,1.848 19.233,8.585 24.218,12.689 5.583,4.599 8.474,11.039 8.474,19.01 v 41.49"
             style="fill:#fab20b;fill-opacity:1;fill-rule:nonzero;stroke:none"
             id="path24" />
        </g>
      </g>
    </g>
  </g>
</svg>
