<?xml version="1.0" encoding="UTF-8"?>
<svg id="Layer_2" data-name="Layer 2" xmlns="http://www.w3.org/2000/svg" viewBox="0 0 100 100">
  <defs>
    <style>
      .cls-1 {
        fill: #fff;
      }

      .cls-2 {
        fill: #00857d;
      }
    </style>
  </defs>
  <rect class="cls-1" x="0" width="100" height="100"/>
  <g>
    <circle class="cls-2" cx="65.31" cy="37.3" r="6.1"/>
    <circle class="cls-2" cx="34.71" cy="37.3" r="6.1"/>
    <path class="cls-2" d="m50.01,5C25.11,5,5.01,25.1,5.01,50s20.1,45,45,45,45-20.1,45-45S74.91,5,50.01,5Zm0,82.5c-20.7,0-37.5-16.8-37.5-37.5S29.31,12.5,50.01,12.5s37.5,16.8,37.5,37.5-16.8,37.5-37.5,37.5Z"/>
    <path class="cls-2" d="m32.61,57.1c1.3,0,2.5.7,3.2,1.9,2.9,5.2,8.3,8.4,14.2,8.4s11.4-3.2,14.2-8.4c1-1.8,3.2-2.4,5-1.4s2.4,3.2,1.4,5c-4.1,7.5-12,12.2-20.6,12.2s-16.5-4.7-20.6-12.2c-1-1.8-.3-4,1.4-5,.6-.3,1.2-.5,1.8-.5h0Z"/>
  </g>
</svg>