<?xml version="1.0" encoding="UTF-8"?>
<svg id="Layer_2" data-name="Layer 2" xmlns="http://www.w3.org/2000/svg" viewBox="0 0 500 500">
  <defs>
    <style>
      .cls-1 {
        stroke-width: 1.5px;
      }

      .cls-1, .cls-2, .cls-3 {
        stroke: #000;
        stroke-miterlimit: 10;
      }

      .cls-1, .cls-3 {
        fill: none;
      }

      .cls-2, .cls-3 {
        stroke-width: .5px;
      }
    </style>
  </defs>
  <path class="cls-2" d="m182.04,315.47l14.27-.61c.58-.02,1.06.44,1.06,1.01v2.01c0,.56-.45,1.02-1.02,1.02h-14.31c-.57,0-1.03-.47-1.02-1.04l.03-1.41c.01-.54.44-.97.97-.99Z"/>
  <path d="m142.77,349.44c-11.41,0-20.65,10.67-20.65,23.83s9.25,23.83,20.65,23.83,20.65-10.67,20.65-23.83-9.25-23.83-20.65-23.83Zm1.2,34.1c-4.74,0-8.58-4.55-8.58-10.17s3.84-10.17,8.58-10.17,8.58,4.55,8.58,10.17-3.84,10.17-8.58,10.17Z"/>
  <path d="m359.63,346.24c-11.41,0-20.65,10.67-20.65,23.83s9.25,23.83,20.65,23.83,20.65-10.67,20.65-23.83-9.25-23.83-20.65-23.83Zm1.2,34.1c-4.74,0-8.58-4.55-8.58-10.17s3.84-10.17,8.58-10.17,8.58,4.55,8.58,10.17-3.84,10.17-8.58,10.17Z"/>
  <path class="cls-1" d="m430.4,344.97s-2.89-19.01-13.71-24.54-106.83-16.6-111.16-21.41-47.4-57.26-56.54-62.56c-9.14-5.29-88.78,17.8-105.62,33.92-16.84,16.12-32.72,42.59-38.74,48.6s-16.6,8.66-17.32,11.31,5.77,2.17,5.77,2.17c0,0-4.57,10.59-6.74,15.88,0,0-6.74-1.44-7.94.96s0,21.41,4.81,26.23,31.52,5.05,31.52,5.05c0,0-2.17-22.14,6.98-32s34.41-14.44,43.79,4.57,7.22,21.17,10.11,22.86,151.82.48,153.26-3.13-.24-17.8,12.27-28.15,31.76-7.7,39.46,2.17,8.42,21.89,11.07,23.58,33.68.72,35.85-3.13,3.37-12.51,5.53-15.4,3.77-4.25,2.57-5.69-5.21-1.28-5.21-1.28Z"/>
  <path class="cls-3" d="m417.97,320.91s-3.05-3.69-11.55-5.45c-8.5-1.76-100.25-16.04-100.25-16.04"/>
  <path class="cls-3" d="m423.58,326.52s-151.58-17.64-330.51,5.93"/>
  <path class="cls-3" d="m294.5,293.64l5.49,5.85s-2,.18-6.5.49"/>
  <path class="cls-3" d="m288.48,300.28c-32.17,2.31-125.21,9.23-161,14.38,0,0-12.03,3.37-6.5-6.26s18.05-28.15,26.23-34.89c7.94-6.53,62.28-30.96,96.06-31.75,1.93-.05,3.78.75,5.09,2.17l41.05,44.14"/>
  <path class="cls-3" d="m192.19,252.99s-5.47,32.04-8.28,55.66"/>
  <path class="cls-3" d="m188.86,254.2s-6.01,32.7-8.54,54.86"/>
  <path class="cls-3" d="m195.26,252.06s-5.21,35.91-7.21,56.2"/>
  <path class="cls-3" d="m176.44,309.19s-4.54,8.41-4.54,15.22,3.74,27.36,6.94,31.77c2.29,3.15,5.33,9.44,6.88,12.77.62,1.33,1.95,2.17,3.42,2.15l110.95-1.28c1.2-.01,2.21-.91,2.38-2.1,1.06-7.79,4.65-35.47,3.85-47.45-.93-14.02-6.33-20.77-6.33-20.77"/>
  <path class="cls-3" d="m102.64,331.25s7.46-.12,7.76,1.2-8.24,8.9-22.08,11.67"/>
  <line class="cls-3" x1="121.71" y1="348.58" x2="86.34" y2="348.34"/>
  <line class="cls-3" x1="430.4" y1="344.97" x2="380.59" y2="346.89"/>
  <path class="cls-3" d="m248.98,236.46s30.8,19.97,56.54,62.56"/>
  <path class="cls-3" d="m143.36,270.38s-11.07,4.57-46.68,54.14"/>
  <path class="cls-3" d="m394.55,323.96s4.81,8.82,7.06,10.59,26.79,2.73,26.79,2.73"/>
  <path class="cls-3" d="m288.14,305.64l1.18-17.1c.07-1.08,1.09-1.84,2.14-1.6l1.68.37c1.42.32,2.33,1.69,2.08,3.12l-2.68,14.85c-.19,1.06-1,1.91-2.05,2.16l-.19.04c-1.16.27-2.24-.66-2.16-1.84Z"/>
</svg>