<?xml version="1.0" encoding="UTF-8"?>
<svg id="Layer_2" data-name="Layer 2" xmlns="http://www.w3.org/2000/svg" viewBox="0 0 500 500">
  <defs>
    <style>
      .cls-1 {
        stroke-width: 1.5px;
      }

      .cls-1, .cls-2, .cls-3 {
        stroke: #000;
        stroke-miterlimit: 10;
      }

      .cls-1, .cls-3 {
        fill: none;
      }

      .cls-2, .cls-3 {
        stroke-width: .5px;
      }
    </style>
  </defs>
  <path class="cls-2" d="m218.73,306.14l13.02-.55c.53-.02.97.4.97.93v1.84c0,.51-.41.93-.93.93h-13.04c-.52,0-.94-.43-.93-.95l.03-1.28c.01-.49.4-.88.89-.9Z"/>
  <path class="cls-2" d="m139.31,306.58l13.02-.55c.53-.02.97.4.97.93v1.84c0,.51-.41.93-.93.93h-13.04c-.52,0-.94-.43-.93-.95l.03-1.28c.01-.49.4-.88.89-.9Z"/>
  <path class="cls-1" d="m67.84,345.34l-3.07.66s-.66,8.34.22,15.36,1.54,9.21,5.27,11.41,26.11,8.12,26.11,8.12c0,0,.22-24.79,10.75-30.49s27.2-3.73,31.81,3.95,7.9,26.55,7.9,26.55l187.14-.44s-.66-17.77,9.65-28.52,31.37-10.97,38.39-1.54,8.34,29.84,8.34,29.84c0,0,53.75-2.63,56.38-17.77s-.22-30.49-3.73-37.3-2.85-11.63-25.89-16.23c-23.04-4.61-103.55-14.92-103.55-14.92,0,0-.07-3.91-2.25-6.09-1.91-1.91-3.84-1.4-3.84-1.4,0,0-34.72-51.53-47.33-56.47-12.61-4.94-94.99-4.39-103.44,4.28s-30.93,58.91-38.61,64.5-36.2,7.02-42.12,16.02-8.12,30.49-8.12,30.49Z"/>
  <path class="cls-3" d="m301.49,296.2s-42.55-.03-89.95.88c-45.63.88-76.13,2.63-77.22,1.54-2.31-2.31,25.69-60.94,31.37-62.96,12.94-4.61,85.04-6.88,94.99,0,12.07,8.34,42.34,52.43,42.34,52.43,0,0-1.54,3.51-1.54,8.12Z"/>
  <path class="cls-3" d="m213.51,231.04s-3.51,100.48-1.76,140.85"/>
  <path class="cls-3" d="m312.46,380.01c3.29-31.37,1.1-86,1.1-86"/>
  <path class="cls-3" d="m134.32,298.61s-6.14,26.33-3.07,49.8"/>
  <path class="cls-3" d="m441.46,322.97s-310.21.88-369.45.44"/>
  <path class="cls-3" d="m207.3,297.08s1.46-56.02,2.19-65.67"/>
  <path class="cls-3" d="m217.68,231.41s-.88,49.87-1.17,65.67"/>
  <path class="cls-3" d="m115.3,347.1s-33.79-1.32-47.46-1.76"/>
  <path class="cls-3" d="m447.16,342.27s-62.53,2.63-73.06,2.41"/>
  <path class="cls-3" d="m312.9,371.89s-157.52.22-168.05-.44"/>
  <path class="cls-3" d="m100.97,323.55s-1.46,13.75-5.56,14.77-25.89-3.8-25.89-3.8"/>
  <path d="m411.91,323.19c-1.39.15-3.31.32-3.92,1.75-.14.44-.05.92.09,1.41.65,1.97,1.76,3.82,2.91,5.55,1.78,2.39,3.72,5.43,6.8,6.08,1.01.14,2.08.13,3.13.12,8.47-.25,16.92-1.23,25.34-2.17,0,0,.06.5.06.5-4.22.49-8.44.94-12.67,1.33-4.23.38-8.46.75-12.72.84-2.13.08-4.52.01-6.16-1.56-3.19-2.87-5.67-6.53-7.17-10.55-.44-1.12-.03-2.45,1.12-2.96,1.01-.51,2.1-.64,3.19-.64v.3h0Z"/>
  <path d="m120.87,353.83c-10.95,0-19.83,10.24-19.83,22.88s8.88,22.88,19.83,22.88,19.83-10.24,19.83-22.88-8.88-22.88-19.83-22.88Zm1.16,32.74c-4.55,0-8.24-4.37-8.24-9.76s3.69-9.76,8.24-9.76,8.24,4.37,8.24,9.76-3.69,9.76-8.24,9.76Z"/>
  <path d="m363.07,350.61c-12.49,0-22.62,11.68-22.62,26.1s10.13,26.1,22.62,26.1,22.62-11.68,22.62-26.1-10.13-26.1-22.62-26.1Zm1.32,37.35c-5.19,0-9.39-4.98-9.39-11.13s4.21-11.13,9.39-11.13,9.39,4.98,9.39,11.13-4.21,11.13-9.39,11.13Z"/>
  <path class="cls-1" d="m307.47,286.52s-6.42-.19-5.98,9.68c.52,11.65,1.5,15.44,2.83,15.91s5.58.76,6.52-.76,3.5-13.14,2.55-19.18"/>
  <path class="cls-3" d="m304.32,312.11s6.39-25.45,2.11-25.24"/>
  <path class="cls-3" d="m442.48,324.65s-18.79.15-19.53.66c-1.53,1.07,1.46,9.07,3.58,10.46.9.59,19.16-1.54,19.16-1.54"/>
</svg>