<?xml version="1.0" encoding="UTF-8"?>
<svg id="Layer_2" data-name="Layer 2" xmlns="http://www.w3.org/2000/svg" viewBox="0 0 500 500">
  <defs>
    <style>
      .cls-1 {
        stroke-width: 1.5px;
      }

      .cls-1, .cls-2, .cls-3 {
        stroke: #000;
        stroke-miterlimit: 10;
      }

      .cls-1, .cls-3 {
        fill: none;
      }

      .cls-2, .cls-3 {
        stroke-width: .5px;
      }
    </style>
  </defs>
  <path d="m110.12,354.57c-11.25,0-20.36,10.52-20.36,23.5s9.12,23.5,20.36,23.5,20.36-10.52,20.36-23.5-9.12-23.5-20.36-23.5Zm1.19,33.63c-4.67,0-8.46-4.49-8.46-10.03s3.79-10.03,8.46-10.03,8.46,4.49,8.46,10.03-3.79,10.03-8.46,10.03Z"/>
  <path d="m397.69,354.57c-11.25,0-20.36,10.52-20.36,23.5s9.12,23.5,20.36,23.5,20.36-10.52,20.36-23.5-9.12-23.5-20.36-23.5Zm1.19,33.63c-4.67,0-8.46-4.49-8.46-10.03s3.79-10.03,8.46-10.03,8.46,4.49,8.46,10.03-3.79,10.03-8.46,10.03Z"/>
  <path class="cls-1" d="m450.14,352.39s-.47-22.3-6.88-28.71c-6.41-6.41-40.57-23.01-47.22-30.61s-46.03-65.25-72.13-76.4-205.71-9.02-237.03,3.08-39.39,81.15-39.62,94.43,1.42,29.66,1.42,29.66c0,0-2.61,2.14-1.9,5.22s3.08,12.81,8.54,18.51,27.05,9.02,27.05,9.02c0,0-2.37-31.08,24.68-30.61,27.05.47,30.37,33.69,30.37,33.69h235.13s1.19-33.93,27.05-31.56,21.35,31.08,21.35,31.08c0,0,21.59-.95,24.68-5.46s4.51-21.35,4.51-21.35Z"/>
  <path class="cls-3" d="m355.55,252.42s-24.68-28.47-37.01-31.32c-12.34-2.85-60.74-6.01-104.71-5.38-43.97.63-100.92,3.8-107.56,9.49s-22.14,31.32-19.93,36.38,11.39,9.81,18.67,10.44,281.48,23.81,280.85,19.38c-.63-4.43-30.29-38.99-30.29-38.99Z"/>
  <path class="cls-3" d="m328.98,219.04s12.48,5.87,19.77,12.97c18.19,17.72,39.07,43.18,54.1,66.28"/>
  <line class="cls-3" x1="450.14" y1="352.39" x2="411.23" y2="351.44"/>
  <line class="cls-3" x1="99.94" y1="346.69" x2="48.69" y2="343.85"/>
  <path class="cls-3" d="m442.79,352.15s-3.32-24.91-14.95-31.32-44.13-14.24-60.74-16.13c-16.61-1.9-279.74-23.96-315.57-24.2"/>
  <path class="cls-3" d="m164.37,217.53s-13.82,55.77-13.19,80.45c.63,24.68,9.81,75.61,9.81,75.61"/>
  <path class="cls-3" d="m292.12,218.09s-4.75,119.58-3.8,129.55,5.22,25.62,5.22,25.62"/>
  <path class="cls-3" d="m136.43,373.4l226.85.54c2.49,0,4.67-1.7,5.26-4.13,13.54-55.6,2.26-99.14,2.26-99.14"/>
  <path class="cls-2" d="m310.67,303.31l-14.01-1.13c-.6-.05-1.13.41-1.17,1.01l-.09,1.4c-.04.59.4,1.1.99,1.15l14.05,1.23c.62.05,1.16-.42,1.18-1.05l.05-1.5c.02-.58-.42-1.07-1-1.12Z"/>
  <path class="cls-2" d="m171.47,292.55l-14.01-1.13c-.6-.05-1.13.41-1.17,1.01l-.09,1.4c-.04.59.4,1.1.99,1.15l14.05,1.23c.62.05,1.16-.42,1.18-1.05l.05-1.5c.02-.58-.42-1.07-1-1.12Z"/>
  <path class="cls-3" d="m434.72,327.95s-8.07-8.3-10.32-6.05,8.07,19.34,11.03,21.83,7.12,6.17,7.12,6.17l7.2.28"/>
  <path class="cls-3" d="m50.47,287.73s3.91-4.63,6.76-3.68,9.49,14.24,9.97,19.93-7.12,20.88-9.97,23.25-9.49,4.27-9.49,4.27"/>
  <path class="cls-3" d="m446.82,330.08s-10.91-1.5-12.42-2.53"/>
  <path class="cls-3" d="m448.16,333.96s-10.12-.79-10.99-1.34"/>
  <path class="cls-3" d="m448.8,337.68s-8.46-.32-9.65-.63"/>
  <path class="cls-3" d="m449.27,341.55s-7.43-.16-9.1-.63"/>
  <path class="cls-3" d="m449.9,345.82s-6.56-.24-8.46-.47"/>
  <path class="cls-3" d="m49.04,296.27s3.68-4.86,4.98-4.39,4.86,10.2,4.27,13.52-2.37,10.56-4.86,12.34-6.17,2.85-6.17,2.85"/>
  <path class="cls-3" d="m288.78,217.92s-3.32,62.16-3.32,68.1"/>
  <path class="cls-3" d="m296.85,218.4s-2.61,53.86-2.85,68.33"/>
  <path class="cls-3" d="m167.77,217.21s-7.83,34.88-11.15,58.84"/>
  <path class="cls-3" d="m159.94,217.69s-7.36,28.71-11.39,57.89"/>
</svg>