<?xml version="1.0" encoding="UTF-8"?>
<svg id="Layer_2" data-name="Layer 2" xmlns="http://www.w3.org/2000/svg" viewBox="0 0 500 500">
  <defs>
    <style>
      .cls-1 {
        stroke-width: 1.5px;
      }

      .cls-1, .cls-2, .cls-3, .cls-4 {
        stroke: #000;
        stroke-miterlimit: 10;
      }

      .cls-1, .cls-3, .cls-4 {
        fill: none;
      }

      .cls-2, .cls-4 {
        stroke-width: .5px;
      }
    </style>
  </defs>
  <path class="cls-1" d="m296.29,275.02c4.3,3.99,112.08-5.7,116.7.91s9.03,24.44,9.91,38.53c.88,14.09,1.1,32.37,1.1,32.37h3.89s.88,4.84.44,11.89-.29,10.79-1.39,11.89-24.08,3.52-26.35,0-15.12-41.47-17.25-44.55-15.93-5.06-24.37-4.92-20.99,3.45-23.63,5.95-8.07,19.67-9.1,27.45c-1.03,7.78-1.1,16.38-2.5,17.91s-72.74,0-72.74,0c0,0-62.88.88-64.18-.08s-.78-8.7-1.48-13.4-3.65-24.27-14-29.58c-10.35-5.31-37.66-4.78-44.45,3.91-6.78,8.7-7.92,32.18-8.52,34.62,0,0-7.83.35-9.22-1.39s-6.78-21.05-6.7-22.01,1.39-1.04,1.39-1.04c0,0-1.98-13.33-2.86-27.42-.69-11.03-.3-19.1-.1-22.08.04-.65.55-1.15,1.19-1.24.8-.11,1.8-.57,2.14-2.08.59-2.64,10.86-36.11,14.68-45.65,3.82-9.54,16.59-35.23,16.59-35.23,0,0-5.14-4.11-5.14-4.84s37.73-7.63,66.5-9.1c28.77-1.47,54.76-1.61,57.69,1.91s14.02,22.31,20.63,36.99,16.66,36.11,21.15,40.27Z"/>
  <path d="m100.96,297.83c77.86-3.53,225.34-14.48,301.3-14.86,1.7.12,3.45.12,5.1.62.26.08.53.28.69.46,1.34,1.52,1.94,3.41,2.62,5.26,1.24,3.69,2.09,7.48,2.83,11.28,1.44,7.61,2.33,15.32,2.88,23.04.54,7.72.73,15.47.59,23.21,0,0-.39,0-.39,0,.12-7.73-.08-15.46-.63-23.17-.56-7.71-1.46-15.4-2.91-22.98-.74-3.79-1.6-7.56-2.83-11.21-.63-1.75-1.28-3.67-2.51-5.07-.17-.17-.29-.27-.5-.34-1.59-.47-3.3-.48-4.95-.59-75.1.06-224.92,11.64-301.28,14.37h0Z"/>
  <path d="m402.3,355.87c-3.91-11.92-7.84-23.85-12.5-35.5-.6-1.45-1.21-2.89-1.89-4.3-.7-1.41-1.35-2.84-2.75-3.61-8.03-4.7-17.67-6.88-26.93-6.7-6.24.3-12.47,1.25-18.52,2.84-4.38,1.3-9.23,2.59-12.45,6-.98,1.18-1.34,2.79-1.93,4.19-4.24,11.79-8.02,23.8-10.6,36.06,0,0-.34-.07-.34-.07,1.25-6.16,2.9-12.23,4.69-18.24,1.8-6.02,3.74-11.99,5.9-17.89.61-1.46.96-3.05,1.99-4.31,1.03-1.25,2.41-2.11,3.79-2.87,8.51-4.16,18.09-5.59,27.46-6.22,9.38-.13,19.07,2.12,27.15,6.91,2.64,1.73,3.41,5.36,4.72,8.08,4.5,11.65,8.69,23.8,12.22,35.61h0Z"/>
  <line class="cls-4" x1="424" y1="346.93" x2="399.4" y2="346.93"/>
  <path class="cls-3" d="m411.35,292.34s-7.83-.93-8.12,1.27,1.47,37.87,2.79,39.34,10.64,0,10.64,0"/>
  <path class="cls-3" d="m273.16,275.98c-31.26,1.74-109.98,6.38-148.03,10.93-1.51.18-2.7-1.23-2.28-2.69,4.01-13.77,20.62-69.14,29.35-73.25,9.98-4.7,93.66-13.51,99.24-7.05,3.87,4.48,18.23,32.48,27.26,52.26"/>
  <path class="cls-3" d="m282.09,263.8c1.96,4.63,4.23,10.37,4.28,11.47,0,0-2.23.12-6.19.33"/>
  <path class="cls-4" d="m204.16,203.2s-.9,43.95,1.17,76.95"/>
  <path class="cls-4" d="m206.5,202.6s.3,44.85,1.77,77.55c0,0,2.35,62.72,4.11,78.79"/>
  <path class="cls-4" d="m202.11,203.2s-2.64,46.81,0,77.35"/>
  <path class="cls-4" d="m159.74,208.92s-3.29,36.67-3.95,74.96"/>
  <path class="cls-4" d="m155.8,209.8s-3.75,48.8-4.19,74.2c0,0-.88,21.64,0,41.98"/>
  <path class="cls-4" d="m130.21,260.3s-1.06,24.46.7,25.95"/>
  <path class="cls-4" d="m256.41,200.4s15.58,12.67,37.41,71.51"/>
  <path class="cls-4" d="m134.65,211.44s-24.43,29.48-30.45,79.24"/>
  <path class="cls-4" d="m298.1,275.58s-2.04,55.81,1.27,97.55"/>
  <path class="cls-4" d="m196.31,362.68s-14.31-48.66-18.5-51.09-46.24-2.06-50.21,1.28-10.35,36.15-10.35,36.15"/>
  <path class="cls-4" d="m298.42,358.17s-96.22,1.87-103.46,0"/>
  <line class="cls-4" x1="103.83" y1="343.49" x2="118.39" y2="343.49"/>
  <path class="cls-3" d="m273.75,281.65c-.51-.02-.59-24.66-.59-24.66,0,0,6.31-2.2,7.93.66s1.75,14.27-2.83,23.12c-.28.55-.86.89-1.48.9-.82.01-2.01.02-3.03-.02Z"/>
  <path class="cls-2" d="m154.97,298.54l13.06-.56c.53-.02.97.4.97.93v1.84c0,.51-.42.93-.93.93h-13.09c-.52,0-.94-.43-.93-.95l.03-1.29c.01-.49.4-.89.89-.91Z"/>
  <path class="cls-2" d="m215.2,296.69l13.06-.56c.53-.02.97.4.97.93v1.84c0,.51-.42.93-.93.93h-13.09c-.52,0-.94-.43-.93-.95l.03-1.29c.01-.49.4-.89.89-.91Z"/>
  <line class="cls-4" x1="418.6" y1="289.59" x2="410.77" y2="290.39"/>
  <line class="cls-4" x1="423.77" y1="335.6" x2="416.73" y2="335.6"/>
  <path class="cls-2" d="m419.91,294.7l-1.81.1c-.29.02-.49.29-.42.57l.96,3.9c.06.22.27.37.5.35l1.79-.19-1.01-4.73Z"/>
  <path class="cls-2" d="m421.86,306.58h-1.8c-.29-.02-.53.22-.5.51l.41,4c.02.23.21.41.45.41l1.8.06-.36-4.98Z"/>
  <path class="cls-2" d="m422.55,317.81h-1.8c-.29-.02-.53.22-.5.51l.41,4c.02.23.21.41.45.41l1.8.06-.36-4.98Z"/>
  <path class="cls-2" d="m423.19,327.79h-1.8c-.29-.02-.53.22-.5.51l.41,4c.02.23.21.41.45.41l1.8.06-.36-4.98Z"/>
  <g>
    <path d="m388.85,358.02l-2.55-.28s-.76-5.1-2.36-8.31-3.49-5.76-3.49-5.76l1.89-2.08s-2.36-3.78-8.03-6.89l-1.51,2.17s-5.1-1.09-6.7-1.3v-2.46s-3.49-1.9-11.43,1.03l.85,2.64s-3.59,1.23-6.14,3.02l-2.64-2.42s-4.15,3.18-6.23,7.33l1.7,1.23s-1.7,2.64-2.93,7.18l-2.64-.76s-1.42,2.75-1.7,7.51l2.08.42s-.76,2.27,0,9.73l-2.08.47s.76,6.04,2.74,9.73l1.51-.76s3.3,5.19,6.04,7.36l-1.42,2.08s4.91,4.34,7.74,5.1l1.51-2.17s6.89,2.64,9.73,3.12l.19,2.08s5.38,1.79,9.73-.76l-.66-2.27s5.19-1.98,7.08-4.15l1.61,1.23s4.15-3.4,5.76-8.59l-2.74-1.32s2.55-4.44,2.93-10.39l1.51.28s2.27-7.93.66-13.03Zm-40.32,12.75c-1.79-17.85,12.97-19.46,15.39-19.01,5.85,1.07,11.24,5.32,11.52,15.9.61,22.79-25.12,20.97-26.91,3.12Z"/>
    <ellipse cx="361.94" cy="369" rx="4.09" ry="5.04"/>
    <ellipse cx="361.37" cy="356.79" rx="1.64" ry="1.76"/>
    <circle cx="370.69" cy="363.71" r="1.38"/>
    <ellipse cx="351.49" cy="365.35" rx="1.32" ry="1.76"/>
    <ellipse cx="355.27" cy="377.31" rx="1.45" ry="1.76"/>
    <ellipse cx="369.68" cy="377.25" rx="1.38" ry="1.7"/>
  </g>
  <g>
    <path d="m179.57,362.88l-2.54-.28s-.75-5.08-2.35-8.28-3.48-5.74-3.48-5.74l1.88-2.07s-2.35-3.76-8-6.87l-1.51,2.16s-5.08-1.09-6.68-1.3v-2.46s-3.48-1.89-11.39,1.03l.85,2.63s-3.58,1.22-6.12,3.01l-2.63-2.42s-4.14,3.17-6.21,7.31l1.69,1.22s-1.69,2.63-2.92,7.15l-2.63-.75s-1.41,2.74-1.69,7.49l2.07.42s-.75,2.26,0,9.69l-2.07.47s.75,6.02,2.73,9.69l1.51-.75s3.29,5.18,6.02,7.34l-1.41,2.07s4.89,4.33,7.72,5.08l1.51-2.16s6.87,2.63,9.69,3.11l.19,2.07s5.36,1.79,9.69-.75l-.66-2.26s5.18-1.98,7.06-4.14l1.6,1.22s4.14-3.39,5.74-8.56l-2.73-1.32s2.54-4.42,2.92-10.35l1.51.28s2.26-7.9.66-12.99Zm-40.18,12.7c-1.79-17.79,12.93-19.39,15.34-18.95,5.83,1.07,11.2,5.3,11.48,15.84.61,22.71-25.03,20.9-26.82,3.11Z"/>
    <ellipse cx="152.75" cy="373.83" rx="4.08" ry="5.02"/>
    <ellipse cx="152.19" cy="361.66" rx="1.63" ry="1.76"/>
    <circle cx="161.47" cy="368.56" r="1.38"/>
    <ellipse cx="142.34" cy="370.19" rx="1.32" ry="1.76"/>
    <ellipse cx="146.1" cy="382.11" rx="1.44" ry="1.76"/>
    <ellipse cx="160.47" cy="382.05" rx="1.38" ry="1.69"/>
  </g>
  <path class="cls-4" d="m414.05,304.65l-2.03.14c-3.59.13-3.32,1.66-3.17,3.53l.81,10.51c.13,1.74,0,3.14,3.36,3.03l2.82-.15"/>
  <path class="cls-3" d="m103.18,339.61h5.8c1.74,0,3.19-1.33,3.34-3.07l2.25-26.61c.17-1.97-1.39-3.65-3.37-3.64l-10.64.08"/>
  <path class="cls-4" d="m100.94,313.48c.13,0,4.45-.09,6.99-.14.97-.02,1.76.8,1.69,1.77l-.99,15.72c-.05.83-.7,1.49-1.53,1.56l-4.6.36"/>
</svg>