<?xml version="1.0" encoding="UTF-8"?>
<svg id="Layer_2" data-name="Layer 2" xmlns="http://www.w3.org/2000/svg" viewBox="0 0 500 500">
  <defs>
    <style>
      .cls-1 {
        stroke-width: 1.5px;
      }

      .cls-1, .cls-2, .cls-3 {
        stroke: #000;
        stroke-miterlimit: 10;
      }

      .cls-1, .cls-3 {
        fill: none;
      }

      .cls-2, .cls-3 {
        stroke-width: .5px;
      }
    </style>
  </defs>
  <path d="m100.41,349.36c-11.85,0-21.46,11.08-21.46,24.76s9.61,24.76,21.46,24.76,21.46-11.08,21.46-24.76-9.61-24.76-21.46-24.76Zm1.25,35.43c-4.92,0-8.91-4.73-8.91-10.56s3.99-10.56,8.91-10.56,8.91,4.73,8.91,10.56-3.99,10.56-8.91,10.56Z"/>
  <path d="m410.41,349.36c-11.85,0-21.46,11.08-21.46,24.76s9.61,24.76,21.46,24.76,21.46-11.08,21.46-24.76-9.61-24.76-21.46-24.76Zm1.25,35.43c-4.92,0-8.91-4.73-8.91-10.56s3.99-10.56,8.91-10.56,8.91,4.73,8.91,10.56-3.99,10.56-8.91,10.56Z"/>
  <path class="cls-2" d="m154.39,283.68l-14.76-1.19c-.64-.05-1.19.43-1.23,1.06l-.1,1.48c-.04.62.42,1.16,1.04,1.21l14.81,1.3c.65.06,1.22-.45,1.24-1.1l.05-1.58c.02-.61-.44-1.13-1.05-1.18Z"/>
  <path class="cls-2" d="m287.72,293.68l-14.76-1.19c-.64-.05-1.19.43-1.23,1.06l-.1,1.48c-.04.62.42,1.16,1.04,1.21l14.81,1.3c.65.06,1.22-.45,1.24-1.1l.05-1.58c.02-.61-.44-1.13-1.05-1.18Z"/>
  <path class="cls-1" d="m390.91,277.88c-18.23-10.63-104.5-73.75-128-76s-132-7-203.5,26c0,0-16,16-21.75,44s-2.5,65.75-2.5,65.75c0,0-2.25,3.25-2.25,7s1.75,14,8,17.75,31.5,9.5,31.5,9.5c0,0-4.25-33.75,28-31.75s31.5,38,31.5,38l250.75-1s-3.75-37.5,29-35.5,25,32.75,25,32.75c0,0,22,.5,24.75-3.75s7.75-16,4.75-33.25-6.75-24.5-22-33.5-38.25-17.25-53.25-26Z"/>
  <path class="cls-3" d="m180.41,208.38s-60.5,4-74,10.5-33.5,25-32.5,29.5,6.5,9.5,20,12,282.5,23,283.5,18.5-98.5-67.5-112.5-71-84.5.5-84.5.5Z"/>
  <path class="cls-3" d="m374.66,279.38s4,25.25-1,91.25"/>
  <line class="cls-3" x1="382.41" y1="371.13" x2="131.16" y2="369.88"/>
  <path class="cls-3" d="m266.91,370.38s-2-9.5-3-16.75.25-61,.5-66.5,3-13,3-13c0,0-9.67-48.08-18.5-67.42"/>
  <path class="cls-3" d="m139.16,369.63s-8.5-21.25-8.25-29.5,0-55.25.25-61.75,3.5-14.25,3.5-14.25c0,0-1.75-28.75,8.25-52.25"/>
  <path class="cls-3" d="m459.66,346.13s-4.75-28-16.75-34c-12-6-55.5-15-77.25-17.75s-310.25-27-328-22.5"/>
  <path class="cls-3" d="m424.41,305.88s-7.38-.5-5.88,4.5,13.75,26.13,40,30.75c0,0,5.38.12,8.25,0"/>
  <line class="cls-3" x1="467.04" y1="346.25" x2="427.41" y2="345.88"/>
  <line class="cls-3" x1="100.41" y1="340.13" x2="35.16" y2="337.63"/>
  <path class="cls-3" d="m252.41,206.54s15,40,17.83,67.33"/>
  <path class="cls-3" d="m244.91,206.54s13.67,35.17,19,67.33"/>
  <path class="cls-2" d="m462.16,322.25s-6.25.25-10.75-1.25"/>
  <path class="cls-2" d="m464.04,326.75s-6.25.5-10.12-.38"/>
  <path class="cls-2" d="m465.54,331.63s-5.75.62-9.75-.12"/>
  <path class="cls-2" d="m466.16,336.5s-5,.38-9-.12"/>
  <path class="cls-3" d="m260.7,201.56c.75.25,16.38-.27,35.38,11.4,13.48,8.28,71.96,45.67,104.21,69.67"/>
</svg>